<svg xmlns="http://www.w3.org/2000/svg" viewBox="0 0 48 48" fill="none">
  <rect width="48" height="48" rx="12" fill="#04202C"/>
  <path d="M12 19c0-1.66 1.34-3 3-3h10c1.66 0 3 1.34 3 3v8c0 1.66-1.34 3-3 3h-2l-3.5 3.5V30H15c-1.66 0-3-1.34-3-3v-8z" fill="#9EADA3"/>
  <circle cx="18.5" cy="23" r="1.5" fill="#04202C"/>
  <circle cx="23.5" cy="23" r="1.5" fill="#04202C"/>
  <path d="M31 22.5c0-1.38 1.12-2.5 2.5-2.5h3c1.38 0 2.5 1.12 2.5 2.5v5c0 1.38-1.12 2.5-2.5 2.5H36l-2.5 2.5V30h-.5c-1.38 0-2.5-1.12-2.5-2.5v-5z" fill="#5B7065"/>
</svg>
